<?xml version="1.0" encoding="iso-8859-1"?>
<!-- Uploaded to: SVG Repo, www.svgrepo.com, Generator: SVG Repo Mixer Tools -->
<svg height="800px" width="800px" version="1.1" id="Layer_1" xmlns="http://www.w3.org/2000/svg" xmlns:xlink="http://www.w3.org/1999/xlink" 
	 viewBox="0 0 360 360" xml:space="preserve">
<g id="XMLID_524_">
	<path id="XMLID_525_" style="fill:#FF5023;" d="M115,147.5c-8.271,0-15-6.729-15-15c0-20,0-90-50-100v40c0,0-20-20-20-50
		c0,0-30,10-30,49.999c0,35.286,23.349,70.564,63.174,78.392C70.758,172.2,91.121,187.5,115,187.5h35v-40H115z"/>
	<path id="XMLID_526_" style="fill:#802812;" d="M360,72.499C360,32.5,330,22.5,330,22.5c0,30-20,50-20,50v-40c-50,10-50,80-50,100
		c0,8.271-6.729,15-15,15h-35v40h35c23.879,0,44.242-15.3,51.826-36.608C336.651,143.064,360,107.785,360,72.499z"/>
	<g id="XMLID_527_">
		<path id="XMLID_530_" style="fill:#802812;" d="M315,227.5H200v-20h115c13.785,0,25-11.215,25-25v-25h20v25
			C360,207.313,339.814,227.5,315,227.5z"/>
	</g>
	<g id="XMLID_531_">
		<path id="XMLID_532_" style="fill:#802812;" d="M360,317.5h-20v-25c0-13.785-11.215-25-25-25H200v-20h115
			c24.814,0,45,20.187,45,45V317.5z"/>
	</g>
	<g id="XMLID_533_">
		<path id="XMLID_534_" style="fill:#802812;" d="M310,337.5h-20v-15c0-13.785-11.215-25-25-25H150v-20h115
			c24.814,0,45,20.187,45,45V337.5z"/>
	</g>
	<g id="XMLID_535_">
		<path id="XMLID_536_" style="fill:#FF5023;" d="M160,227.5H45c-24.813,0-45-20.187-45-45v-25h20v25c0,13.785,11.215,25,25,25h115
			V227.5z"/>
	</g>
	<g id="XMLID_782_">
		<path id="XMLID_783_" style="fill:#FF5023;" d="M20,317.5H0v-25c0-24.813,20.187-45,45-45h115v20H45c-13.785,0-25,11.215-25,25
			V317.5z"/>
	</g>
	<g id="XMLID_784_">
		<path id="XMLID_785_" style="fill:#FF5023;" d="M70,337.5H50v-15c0-24.813,20.187-45,45-45h115v20H95c-13.785,0-25,11.215-25,25
			V337.5z"/>
	</g>
	<ellipse id="XMLID_786_" style="fill:#FF9811;" cx="180" cy="227.5" rx="120" ry="90"/>
	<g id="XMLID_787_">
		<path id="XMLID_788_" style="fill:#FF5023;" d="M180,137.5c66.273,0,120,40.294,120,90s-53.727,90-120,90"/>
	</g>
	<g id="XMLID_789_">
		<path id="XMLID_790_" style="fill:#FF9811;" d="M165.528,166.444C162.915,165.138,140,152.384,140,107.5h20
			c0,32.394,14.106,40.835,14.707,41.178c-0.151-0.086-0.235-0.123-0.235-0.123L165.528,166.444z"/>
	</g>
	<g id="XMLID_791_">
		<circle id="XMLID_792_" style="fill:#802812;" cx="150" cy="97.5" r="20"/>
	</g>
	<g id="XMLID_793_">
		<path id="XMLID_794_" style="fill:#FF5023;" d="M194.472,166.444l-8.943-17.889c0,0-0.084,0.036-0.235,0.123
			c0.6-0.343,14.706-8.784,14.706-41.178h20C220,152.384,197.085,165.138,194.472,166.444z"/>
	</g>
	<g id="XMLID_795_">
		<circle id="XMLID_796_" style="fill:#802812;" cx="210" cy="97.5" r="20"/>
	</g>
</g>
</svg>